<svg width="20" height="20" viewBox="0 0 20 20" fill="none" xmlns="http://www.w3.org/2000/svg">
<path d="M14 2C16.2091 2 18 3.79086 18 6V14C18 16.2091 16.2091 18 14 18H6C3.79086 18 2 16.2091 2 14V6C2 3.79086 3.79086 2 6 2H14ZM14.5332 7.2168C14.1659 6.84962 13.5704 6.84954 13.2031 7.2168L8.85254 11.5674L7.00977 9.72461C6.64259 9.35743 6.047 9.35766 5.67969 9.72461C5.3124 10.0919 5.3124 10.6874 5.67969 11.0547L8.1875 13.5625C8.55479 13.9298 9.15029 13.9298 9.51758 13.5625L14.5332 8.54688C14.9005 8.17959 14.9005 7.58408 14.5332 7.2168Z" fill="#00FFE6"/>
</svg>
