<svg width="20" height="20" viewBox="0 0 20 20" fill="none" xmlns="http://www.w3.org/2000/svg">
<path d="M10 2C12.2091 2 14.2095 2.89506 15.6572 4.34277C17.1049 5.79051 18 7.79088 18 10C18 12.2091 17.1049 14.2095 15.6572 15.6572C14.2095 17.1049 12.2091 18 10 18C7.79088 18 5.79051 17.1049 4.34277 15.6572C2.89506 14.2095 2 12.2091 2 10C2 7.79088 2.89506 5.79051 4.34277 4.34277C5.79051 2.89506 7.79088 2 10 2ZM14.5332 7.2168C14.1659 6.84967 13.5704 6.84956 13.2031 7.2168L8.85254 11.5674L7.00977 9.72461C6.64257 9.35742 6.047 9.35761 5.67969 9.72461C5.3124 10.0919 5.3124 10.6874 5.67969 11.0547L8.1875 13.5625C8.55479 13.9298 9.15029 13.9298 9.51758 13.5625L14.5332 8.54688C14.9005 8.17959 14.9005 7.58408 14.5332 7.2168Z" fill="#00FFE6"/>
</svg>
