<svg width="20" height="20" viewBox="0 0 20 20" fill="none" xmlns="http://www.w3.org/2000/svg">
<path d="M9.99902 2.79993C11.9874 2.79993 13.786 3.60548 15.0898 4.9093C16.3937 6.21315 17.1992 8.0117 17.1992 10.0001C17.1992 11.9885 16.3937 13.7871 15.0898 15.0909C13.786 16.3948 11.9874 17.2003 9.99902 17.2003C8.01061 17.2003 6.21205 16.3948 4.9082 15.0909C3.60438 13.7871 2.79883 11.9885 2.79883 10.0001C2.79883 8.0117 3.60438 6.21315 4.9082 4.9093C6.21205 3.60548 8.0106 2.79993 9.99902 2.79993Z" stroke="#00FFE6" stroke-width="1.6" stroke-linejoin="round"/>
<path d="M10 13C11.6569 13 13 11.6569 13 10C13 8.34315 11.6569 7 10 7C8.34315 7 7 8.34315 7 10C7 11.6569 8.34315 13 10 13Z" fill="#00FFE6"/>
</svg>
