<svg width="24" height="24" viewBox="0 0 24 24" fill="none" xmlns="http://www.w3.org/2000/svg">
<path d="M14.5986 3.00488C14.8276 3.02757 15.0429 3.12883 15.207 3.29297L19.707 7.29297L19.7734 7.36621C19.9193 7.54417 20 7.76791 20 8V19.25C20 20.2165 19.2165 21 18.25 21H5.75C4.7238 21 4.0001 20.1325 4 19.2002V4.7998C4.0001 3.86756 4.72379 3.00003 5.75 3H14.5L14.5986 3.00488ZM6 19H18V10.5H13.5C12.9477 10.5 12.5 10.0523 12.5 9.5V5H6V19ZM14.5 8.5H18V8.41406L14.5 5.36035V8.5Z" fill="white"/>
</svg>
