<svg width="24" height="24" viewBox="0 0 24 24" fill="none" xmlns="http://www.w3.org/2000/svg">
<path d="M5 19H19V8.5H12C11.7429 8.5 11.4972 8.40143 11.3125 8.22656L11.2373 8.14746L9.43164 5H5V19ZM21 19.1729C20.9998 20.1982 20.1588 20.9998 19.1582 21H4.8418C3.84119 20.9998 3.00024 20.1982 3 19.1729V4.82715C3.00024 3.80179 3.84118 3.00016 4.8418 3H9.89453L10.0039 3.00586C10.2568 3.03361 10.4909 3.15741 10.6572 3.35352L12.4629 6.5H19.1582C20.159 6.50016 21 7.30255 21 8.32812V19.1729Z" fill="white"/>
<path d="M15 15C15.5424 15.0258 16 15.4351 16 16C16 16.5649 15.5424 16.9742 15 17H9C8.44772 17 8 16.5523 8 16C8 15.4477 8.44772 15 9 15H15Z" fill="white"/>
</svg>
