<svg width="20" height="20" viewBox="0 0 20 20" fill="none" xmlns="http://www.w3.org/2000/svg">
<path d="M9.75001 0C7.82164 0 5.93657 0.571828 4.33319 1.64317C2.72982 2.71451 1.48013 4.23726 0.742179 6.01884C0.00422452 7.80042 -0.188858 9.76081 0.187348 11.6521C0.563554 13.5434 1.49215 15.2807 2.85571 16.6443C4.21928 18.0079 5.95656 18.9365 7.84787 19.3127C9.73919 19.6889 11.6996 19.4958 13.4812 18.7578C15.2627 18.0199 16.7855 16.7702 17.8568 15.1668C18.9282 13.5634 19.5 11.6784 19.5 9.75C19.4971 7.16504 18.4689 4.68679 16.6411 2.85894C14.8132 1.03109 12.335 0.00292573 9.75001 0ZM9.56256 4.50003C9.78506 4.50003 10.0026 4.56601 10.1876 4.68963C10.3726 4.81325 10.5168 4.98895 10.6019 5.19452C10.6871 5.40008 10.7093 5.62628 10.6659 5.84451C10.6225 6.06274 10.5154 6.2632 10.3581 6.42053C10.2007 6.57786 10.0003 6.68501 9.78203 6.72842C9.5638 6.77183 9.3376 6.74955 9.13204 6.6644C8.92647 6.57925 8.75077 6.43506 8.62715 6.25005C8.50354 6.06505 8.43756 5.84754 8.43756 5.62503C8.43756 5.32667 8.55608 5.04052 8.76706 4.82954C8.97804 4.61856 9.26419 4.50003 9.56256 4.50003ZM10.5 15H9.75001C9.5511 15 9.36034 14.921 9.21969 14.7803C9.07904 14.6397 9.00002 14.4489 9.00001 14.25V9.75C8.8011 9.75 8.61033 9.67098 8.46968 9.53033C8.32903 9.38968 8.25001 9.19891 8.25001 9C8.25001 8.80109 8.32903 8.61032 8.46968 8.46967C8.61033 8.32902 8.8011 8.25 9.00001 8.25H9.75001C9.94892 8.25001 10.1397 8.32903 10.2803 8.46968C10.421 8.61033 10.5 8.80109 10.5 9V13.5C10.6989 13.5 10.8897 13.579 11.0303 13.7197C11.171 13.8603 11.25 14.0511 11.25 14.25C11.25 14.4489 11.171 14.6397 11.0303 14.7803C10.8897 14.921 10.6989 15 10.5 15Z" fill="#368CFF"/>
</svg>
