<svg width="20" height="20" viewBox="0 0 20 20" fill="none" xmlns="http://www.w3.org/2000/svg">
<path d="M9.75 0C7.82164 0 5.93657 0.571828 4.33319 1.64317C2.72982 2.71451 1.48013 4.23726 0.742179 6.01884C0.00422452 7.80042 -0.188858 9.76082 0.187348 11.6521C0.563554 13.5434 1.49215 15.2807 2.85571 16.6443C4.21928 18.0079 5.95656 18.9365 7.84787 19.3127C9.73919 19.6889 11.6996 19.4958 13.4812 18.7578C15.2627 18.0199 16.7855 16.7702 17.8568 15.1668C18.9282 13.5634 19.5 11.6784 19.5 9.75C19.497 7.16506 18.4688 4.68684 16.641 2.85901C14.8132 1.03118 12.3349 0.00298763 9.75 0ZM14.3936 8.04272L8.89307 13.2927C8.75322 13.4258 8.56756 13.5 8.37452 13.5C8.18147 13.5 7.99582 13.4258 7.85596 13.2927L5.10645 10.6677C4.9628 10.5301 4.87965 10.3411 4.87525 10.1423C4.87084 9.94341 4.94555 9.75092 5.08297 9.6071C5.22038 9.46328 5.40927 9.37989 5.60813 9.37523C5.80699 9.37058 5.99957 9.44504 6.14356 9.58228L8.37452 11.7129L13.3565 6.95728C13.5004 6.82004 13.693 6.74558 13.8919 6.75023C14.0907 6.75489 14.2796 6.83828 14.417 6.9821C14.5545 7.12592 14.6292 7.31841 14.6248 7.51727C14.6204 7.71614 14.5372 7.90513 14.3936 8.04272Z" fill="#2DD379"/>
</svg>
