<svg width="20" height="20" viewBox="0 0 20 20" fill="none" xmlns="http://www.w3.org/2000/svg">
<path d="M9.75 0C7.82164 0 5.93657 0.571827 4.33319 1.64317C2.72982 2.71451 1.48013 4.23726 0.742179 6.01884C0.00422452 7.80042 -0.188858 9.76082 0.187348 11.6521C0.563554 13.5434 1.49215 15.2807 2.85571 16.6443C4.21928 18.0079 5.95656 18.9365 7.84787 19.3127C9.73919 19.6889 11.6996 19.4958 13.4812 18.7578C15.2627 18.0199 16.7855 16.7702 17.8568 15.1668C18.9282 13.5634 19.5 11.6784 19.5 9.75C19.4971 7.16503 18.4689 4.68678 16.6411 2.85893C14.8132 1.03108 12.335 0.0029178 9.75 0ZM9 5.25C9 5.05109 9.07902 4.86032 9.21968 4.71967C9.36033 4.57902 9.55109 4.5 9.75 4.5C9.94892 4.5 10.1397 4.57902 10.2803 4.71967C10.421 4.86032 10.5 5.05109 10.5 5.25V10.5C10.5 10.6989 10.421 10.8897 10.2803 11.0303C10.1397 11.171 9.94892 11.25 9.75 11.25C9.55109 11.25 9.36033 11.171 9.21968 11.0303C9.07902 10.8897 9 10.6989 9 10.5V5.25ZM9.75 15C9.5275 15 9.30999 14.934 9.12499 14.8104C8.93998 14.6868 8.79579 14.5111 8.71064 14.3055C8.62549 14.1 8.60321 13.8738 8.64662 13.6555C8.69003 13.4373 8.79718 13.2368 8.95451 13.0795C9.11184 12.9222 9.3123 12.815 9.53053 12.7716C9.74876 12.7282 9.97496 12.7505 10.1805 12.8356C10.3861 12.9208 10.5618 13.065 10.6854 13.25C10.809 13.435 10.875 13.6525 10.875 13.875C10.875 14.1734 10.7565 14.4595 10.5455 14.6705C10.3345 14.8815 10.0484 15 9.75 15Z" fill="#FFA314"/>
</svg>
